{"title":"Things to Come(1936)MP-4[DaScubaDude]","uid":12358776,"size":1121531338,"categoryP":"video","categoryS":"movies","magnet":"?xt=urn:btih:c7015fdb1e47b73908668b06d04bbe74d1597230&amp;dn=Things+to+Come%281936%29MP-4%5BDaScubaDude%5D&amp;tr=udp%3A%2F%2Ftracker.openbittorrent.com%3A80&amp;tr=udp%3A%2F%2Fopen.demonii.com%3A1337&amp;tr=udp%3A%2F%2Ftracker.coppersurfer.tk%3A6969&amp;tr=udp%3A%2F%2Fexodus.desync.com%3A6969","seeders":0,"leechers":0,"uploader":"dascuba","files":1,"time":1441505690,"description":"Things to Come (1936)\nNot Rated  |  100 min  |  Sci-Fi  |  14 September 1936 (UK)\n6.8 Your rating:   -/10   Ratings: 6.8/10 from 4,615 users   \nReviews: 98 user | 73 critic\nThe story of a century: a decades-long second World War leaves plague and anarchy, then a rational state rebuilds civilization and attempts space travel.\n\nDirector: William Cameron Menzies\nWriters: H.G. Wells (novel), H.G. Wells (screenplay)\nStars: Raymond Massey, Edward Chapman, Ralph Richardson\n\n General\nComplete name                        : C:Things to ComeTHINGS_TO_COME_Title7.mp4\nFormat                                   : MPEG-4\nFormat profile                           : Base Media\nCodec ID                                 : isom\nFile size                                : 1.04 GiB\nDuration                                 : 1h 31mn\nOverall bit rate mode                    : Constant\nOverall bit rate                         : 1 628 Kbps\nMovie name                               : THINGS_TO_COME\nGenre                                    : Science_Fiction\nWriting application                      : Lavf54.6.100\n\nVideo\nID                                       : 1\nFormat                                   : MPEG-4 Visual\nFormat settings, BVOP                    : No\nFormat settings, QPel                    : No\nFormat settings, GMC                     : No warppoints\nFormat settings, Matrix                  : Default (H.263)\nCodec ID                                 : 20\nDuration                                 : 1h 31mn\nBit rate mode                            : Constant\nBit rate                                 : 1 494 Kbps\nWidth                                    : 720 pixels\nHeight                                   : 540 pixels\nDisplay aspect ratio                     : 4:3\nFrame rate mode                          : Constant\nFrame rate                               : 29.970 fps\nColor space                              : YUV\nChroma subsampling                       : 4:2:0\nBit depth                                : 8 bits\nScan type                                : Progressive\nCompression mode                         : Lossy\nBits/(Pixel*Frame)                       : 0.128\nStream size                              : 982 MiB (92%)\nWriting library                          : Lavc54.23.100\n\nAudio\nID                                       : 2\nFormat                                   : MPEG Audio\nFormat version                           : Version 1\nFormat profile                           : Layer 3\nCodec ID                                 : 6B\nDuration                                 : 1h 31mn\nBit rate mode                            : Constant\nBit rate                                 : 128 Kbps\nChannel(s)                               : 2 channels\nSampling rate                            : 44.1 KHz\nCompression mode                         : Lossy\nStream size                              : 84.1 MiB (8%)\nWriting library                          : LAME3.99.5","torrent":{"xt":"urn:btih:c7015fdb1e47b73908668b06d04bbe74d1597230","amp;dn":"Things+to+Come%281936%29MP-4%5BDaScubaDude%5D","amp;tr":["udp%3A%2F%2Ftracker.openbittorrent.com%3A80","udp%3A%2F%2Fopen.demonii.com%3A1337","udp%3A%2F%2Ftracker.coppersurfer.tk%3A6969","udp%3A%2F%2Fexodus.desync.com%3A6969"],"infoHash":"c7015fdb1e47b73908668b06d04bbe74d1597230","infoHashBuffer":{"type":"Buffer","data":[199,1,95,219,30,71,183,57,8,102,139,6,208,75,190,116,209,89,114,48]},"announce":[],"urlList":[]}}